<svg width="72" height="73" viewBox="0 0 72 73" fill="none" xmlns="http://www.w3.org/2000/svg">
<g id="Feature Icon with circle">
<rect y="0.565918" width="72" height="72" rx="36" fill="#F4F5F7"/>
<g id="Icon">
<path id="Vector" fill-rule="evenodd" clip-rule="evenodd" d="M45.415 24.3418C45.4152 24.342 45.4154 24.3421 45.4157 24.3422L43.4432 26.3143C43.4431 26.3142 43.4429 26.3141 43.4428 26.3141L42.3004 27.4564V25.7627C42.3002 25.7626 42.3 25.7625 42.2998 25.7625V24.8658L37.7998 24.8658L36 24.8658L34.1998 24.8658C27.7381 24.8658 22.4998 30.104 22.4998 36.5658C22.4998 39.5402 23.6097 42.2553 25.438 44.3197L23.5259 46.2318C21.2104 43.6764 19.7998 40.2858 19.7998 36.5658C19.7998 28.6129 26.2469 22.1658 34.1998 22.1658H36H37.7998H42.3004H44.1H47.5911L45.415 24.3418Z" fill="url(#paint0_radial_2409_273)"/>
<path id="Vector_2" d="M42.006 39.6719L38.8244 38.4335C38.8244 38.4335 38.2174 38.1988 37.982 37.9677C37.8308 37.8186 37.8408 37.4687 37.9748 37.0201C38.1094 36.5716 39.7402 34.7493 39.7402 33.094C39.7402 30.538 38.0568 28.4658 35.9818 28.4658C33.9089 28.4658 32.227 30.5387 32.227 33.094C32.227 34.6801 33.6807 36.5701 33.86 36.9121C34.0392 37.257 33.9953 37.7797 33.8549 37.9381C33.6425 38.1765 32.8642 38.4148 32.8642 38.4148L29.9957 39.6906C29.3254 39.9311 28.7998 40.5618 28.7998 41.2746V41.6123C28.7998 42.3899 29.4312 42.8658 30.2081 42.8658H41.79C42.5662 42.8658 43.1998 42.3892 43.1998 41.6123V41.2746C43.2012 40.5618 42.6756 39.9117 42.006 39.6719Z" fill="#1D2130"/>
<path id="Vector_3" d="M37.8002 48.2659C44.2619 48.2659 49.5002 43.0276 49.5002 36.5659C49.5002 33.5915 48.3903 30.8763 46.562 28.812L48.4741 26.8999C50.7896 29.4553 52.2002 32.8459 52.2002 36.5659C52.2002 44.5188 45.7531 50.9659 37.8002 50.9659L24.4082 50.9662L29.7002 45.6742V48.2659H37.8002Z" fill="url(#paint1_radial_2409_273)"/>
</g>
</g>
<defs>
<radialGradient id="paint0_radial_2409_273" cx="0" cy="0" r="1" gradientUnits="userSpaceOnUse" gradientTransform="translate(6.04244 -37.9992) rotate(60.7856) scale(133.427 436.828)">
<stop offset="0.175497" stop-color="#D798E1"/>
<stop offset="0.275566" stop-color="#9B9FFF"/>
<stop offset="0.49892" stop-color="#AED3FF"/>
<stop offset="0.565292" stop-color="#C9D4EF"/>
<stop offset="0.656871" stop-color="#CACFFA"/>
</radialGradient>
<radialGradient id="paint1_radial_2409_273" cx="0" cy="0" r="1" gradientUnits="userSpaceOnUse" gradientTransform="translate(10.6505 -33.2658) rotate(60.7853) scale(133.429 436.838)">
<stop offset="0.175497" stop-color="#D798E1"/>
<stop offset="0.275566" stop-color="#9B9FFF"/>
<stop offset="0.49892" stop-color="#AED3FF"/>
<stop offset="0.565292" stop-color="#C9D4EF"/>
<stop offset="0.656871" stop-color="#CACFFA"/>
</radialGradient>
</defs>
</svg>
