<svg width="72" height="73" viewBox="0 0 72 73" fill="none" xmlns="http://www.w3.org/2000/svg">
<g id="Feature Icon with circle">
<rect y="0.565918" width="72" height="72" rx="36" fill="#F4F5F7"/>
<g id="Icon">
<path id="Vector" fill-rule="evenodd" clip-rule="evenodd" d="M33.5056 35.9998C30.715 34.8592 28.75 32.1181 28.75 28.9159C28.75 24.6892 32.1734 21.2659 36.4 21.2659C40.6266 21.2659 44.05 24.6892 44.05 28.9159C44.05 32.1181 42.085 34.8593 39.2943 35.9999C41.98 36.6312 44.3344 38.1219 46.0515 40.1658H41.721L41.5722 40.1699C40.1937 40.246 39.0996 41.374 39.0996 42.7542V48.2658H23.7998C23.7998 42.303 27.9418 37.3076 33.5056 35.9998ZM40.442 30.7633C39.9758 32.5873 38.3102 33.8659 36.4002 33.8659C34.4901 33.8659 32.8245 32.5873 32.3584 30.7633L34.3788 30.2659C34.6095 31.1804 35.4433 31.8224 36.4002 31.8224C37.3571 31.8224 38.1909 31.1804 38.4216 30.2659L40.442 30.7633Z" fill="#1D2130"/>
<path id="Vector_2" fill-rule="evenodd" clip-rule="evenodd" d="M40.9004 43.4803C40.9004 42.6439 41.5784 41.9658 42.4148 41.9658H53.7859C54.6223 41.9658 55.3004 42.6439 55.3004 43.4803V49.6774C55.3004 50.5138 54.6223 51.1919 53.7859 51.1919H42.4148C41.5784 51.1919 40.9004 50.5138 40.9004 49.6774V43.4803ZM45.1924 51.1919H51.0078C50.6342 51.1919 49.7209 51.8085 49.0167 52.3288C48.484 52.7224 47.741 52.6928 47.2227 52.2804C46.5826 51.7711 45.7354 51.1919 45.1924 51.1919ZM44.7085 47.5015C45.2438 47.5015 45.6777 47.0884 45.6777 46.5789C45.6777 46.0693 45.2438 45.6562 44.7085 45.6562C44.1732 45.6562 43.7393 46.0693 43.7393 46.5789C43.7393 47.0884 44.1732 47.5015 44.7085 47.5015ZM48.1011 47.5015C48.6364 47.5015 49.0703 47.0884 49.0703 46.5789C49.0703 46.0693 48.6364 45.6562 48.1011 45.6562C47.5658 45.6562 47.1318 46.0693 47.1318 46.5789C47.1318 47.0884 47.5658 47.5015 48.1011 47.5015ZM52.4619 46.5789C52.4619 47.0884 52.028 47.5015 51.4927 47.5015C50.9574 47.5015 50.5234 47.0884 50.5234 46.5789C50.5234 46.0693 50.9574 45.6562 51.4927 45.6562C52.028 45.6562 52.4619 46.0693 52.4619 46.5789Z" fill="url(#paint0_radial_2409_252)"/>
</g>
</g>
<defs>
<radialGradient id="paint0_radial_2409_252" cx="0" cy="0" r="1" gradientUnits="userSpaceOnUse" gradientTransform="translate(33.772 15.3616) rotate(56.7643) scale(61.5658 216.908)">
<stop offset="0.175497" stop-color="#D798E1"/>
<stop offset="0.275566" stop-color="#9B9FFF"/>
<stop offset="0.49892" stop-color="#AED3FF"/>
<stop offset="0.565292" stop-color="#C9D4EF"/>
<stop offset="0.656871" stop-color="#CACFFA"/>
</radialGradient>
</defs>
</svg>
