<svg width="20" height="21" viewBox="0 0 20 21" fill="none" xmlns="http://www.w3.org/2000/svg">
<g id="Facebook" clip-path="url(#clip0_2469_88)">
<path id="Vector" d="M20 10.5659C20 5.04307 15.5229 0.565918 10 0.565918C4.47715 0.565918 0 5.04307 0 10.5659C0 15.5571 3.65684 19.6942 8.4375 20.4444V13.4565H5.89844V10.5659H8.4375V8.36279C8.4375 5.85654 9.93047 4.47217 12.2146 4.47217C13.3084 4.47217 14.4531 4.66748 14.4531 4.66748V7.12842H13.1922C11.95 7.12842 11.5625 7.89932 11.5625 8.69092V10.5659H14.3359L13.8926 13.4565H11.5625V20.4444C16.3432 19.6942 20 15.5571 20 10.5659Z" fill="white"/>
</g>
<defs>
<clipPath id="clip0_2469_88">
<rect width="20" height="20" fill="white" transform="translate(0 0.565918)"/>
</clipPath>
</defs>
</svg>
