<svg width="56" height="57" viewBox="0 0 56 57" fill="none" xmlns="http://www.w3.org/2000/svg">
<g id="Icon">
<g id="Vector">
<path id="Vector_2" fill-rule="evenodd" clip-rule="evenodd" d="M33.7999 21.8431V5.95027C33.3491 5.79814 32.8871 5.65907 32.4242 5.53027C30.5799 5.03747 28.6386 4.76587 26.6319 4.76587C25.7742 4.76587 24.9314 4.81907 24.0998 4.9152C22.066 5.1448 20.1163 5.65254 18.2823 6.38707C18.2823 6.38707 33.3939 21.2887 33.7999 21.8431ZM45.9708 15.8613C46.2106 16.2767 46.4365 16.6995 46.6484 17.1223L35.3662 28.3605C35.4792 27.6857 35.3662 6.50465 35.3662 6.50465C37.1834 7.27185 38.9185 8.29292 40.5229 9.56132C41.1781 10.0784 41.8137 10.6375 42.4194 11.2404C43.8372 12.6497 45.0132 14.2112 45.9708 15.8613ZM27.9017 18.4001L16.6224 7.15992C16.1912 7.37459 15.7674 7.59952 15.3549 7.83846C13.6936 8.78952 12.1284 9.96459 10.7144 11.373C10.103 11.9787 9.54771 12.6143 9.02971 13.2639C7.75571 14.8618 6.73184 16.5931 5.95997 18.4038C5.95997 18.4038 27.2213 18.2918 27.9017 18.4001ZM21.3381 19.9979H5.38553C5.23153 20.444 5.09526 20.9041 4.96833 21.3671C4.47086 23.2067 4.2002 25.1396 4.2002 27.1379C4.2002 27.9919 4.2534 28.8328 4.35046 29.6597C4.58006 31.6888 5.0878 33.6311 5.8298 35.4529C5.8298 35.4529 20.7799 20.3955 21.3381 19.9979ZM6.53712 37.0976L17.8127 25.8574C17.7044 26.5314 17.8174 47.377 17.8192 47.7147L17.8192 47.7153L17.8192 47.7158L17.8192 47.7161L17.8193 47.7189C15.9983 46.9526 14.267 45.9362 12.6626 44.665C12.0074 44.1442 11.3709 43.5898 10.7661 42.986C9.34739 41.5757 8.16765 40.0142 7.21472 38.3613C6.97672 37.945 6.74619 37.5278 6.53712 37.0976ZM38.5796 36.0509C35.82 37.8976 33.9268 40.9381 33.6388 44.4337L25.1895 36.0158C25.576 36.0804 32.5863 36.0711 38.5796 36.0509ZM42.7993 34.3441H31.8594C32.4185 33.9418 47.3714 18.8853 47.3714 18.8853C48.1125 20.7099 48.6165 22.6541 48.8489 24.6803C48.945 25.5082 49.0001 26.3501 49.0001 27.205C49.0001 29.2042 48.7275 31.1315 48.2273 32.973C48.1022 33.4341 47.9631 33.8942 47.8119 34.3441H46.8019C46.1525 34.2269 45.4837 34.1658 44.8006 34.1658C44.1175 34.1658 43.4486 34.2269 42.7993 34.3441ZM33.6832 46.7332C33.7481 47.266 33.8503 47.7872 33.9873 48.2941C32.4292 48.8431 30.7937 49.2234 29.0959 49.4156C28.268 49.5126 27.4234 49.5658 26.5684 49.5658C24.5618 49.5658 22.6232 49.2971 20.7762 48.7958C20.3142 48.6717 19.854 48.5336 19.4014 48.3805V32.4859C19.7332 32.9478 30.0751 43.1696 33.6832 46.7332Z" fill="#6B7CFF"/>
</g>
<g id="Vector_3">
<circle id="&#230;&#164;&#173;&#229;&#156;&#134;&#229;&#189;&#162;" cx="44.8004" cy="45.3658" r="8.4" fill="#6B7CFF"/>
<path id="&#229;&#189;&#162;&#231;&#138;&#182;&#231;&#187;&#147;&#229;&#144;&#136;" fill-rule="evenodd" clip-rule="evenodd" d="M49.1521 42.7286L48.1621 41.7386L43.2123 46.6884L40.7373 44.2135L39.7473 45.2034L43.2122 48.6682L43.2122 48.6681L43.2123 48.6682L49.1521 42.7286Z" fill="#FAFBFF"/>
</g>
</g>
</svg>
