<svg width="20" height="21" viewBox="0 0 20 21" fill="none" xmlns="http://www.w3.org/2000/svg">
<g id="Instagram" clip-path="url(#clip0_2469_81)">
<g id="Group">
<path id="Vector" d="M10 2.3667C12.6719 2.3667 12.9883 2.37842 14.0391 2.42529C15.0156 2.46826 15.543 2.63232 15.8945 2.76904C16.3594 2.94873 16.6953 3.16748 17.043 3.51514C17.3945 3.8667 17.6094 4.19873 17.7891 4.66357C17.9258 5.01514 18.0898 5.54639 18.1328 6.51904C18.1797 7.57373 18.1914 7.89014 18.1914 10.5581C18.1914 13.23 18.1797 13.5464 18.1328 14.5972C18.0898 15.5737 17.9258 16.1011 17.7891 16.4526C17.6094 16.9175 17.3906 17.2534 17.043 17.6011C16.6914 17.9526 16.3594 18.1675 15.8945 18.3472C15.543 18.4839 15.0117 18.6479 14.0391 18.6909C12.9844 18.7378 12.668 18.7495 10 18.7495C7.32813 18.7495 7.01172 18.7378 5.96094 18.6909C4.98438 18.6479 4.45703 18.4839 4.10547 18.3472C3.64063 18.1675 3.30469 17.9487 2.95703 17.6011C2.60547 17.2495 2.39063 16.9175 2.21094 16.4526C2.07422 16.1011 1.91016 15.5698 1.86719 14.5972C1.82031 13.5425 1.80859 13.2261 1.80859 10.5581C1.80859 7.88623 1.82031 7.56982 1.86719 6.51904C1.91016 5.54248 2.07422 5.01514 2.21094 4.66357C2.39063 4.19873 2.60938 3.86279 2.95703 3.51514C3.30859 3.16357 3.64063 2.94873 4.10547 2.76904C4.45703 2.63232 4.98828 2.46826 5.96094 2.42529C7.01172 2.37842 7.32813 2.3667 10 2.3667ZM10 0.565918C7.28516 0.565918 6.94531 0.577637 5.87891 0.624512C4.81641 0.671387 4.08594 0.843262 3.45313 1.08936C2.79297 1.34717 2.23438 1.68701 1.67969 2.24561C1.12109 2.80029 0.78125 3.35889 0.523438 4.01514C0.277344 4.65186 0.105469 5.37842 0.0585938 6.44092C0.0117188 7.51123 0 7.85107 0 10.5659C0 13.2808 0.0117188 13.6206 0.0585938 14.687C0.105469 15.7495 0.277344 16.48 0.523438 17.1128C0.78125 17.773 1.12109 18.3315 1.67969 18.8862C2.23438 19.4409 2.79297 19.7847 3.44922 20.0386C4.08594 20.2847 4.8125 20.4565 5.875 20.5034C6.94141 20.5503 7.28125 20.562 9.99609 20.562C12.7109 20.562 13.0508 20.5503 14.1172 20.5034C15.1797 20.4565 15.9102 20.2847 16.543 20.0386C17.1992 19.7847 17.7578 19.4409 18.3125 18.8862C18.8672 18.3315 19.2109 17.773 19.4648 17.1167C19.7109 16.48 19.8828 15.7534 19.9297 14.6909C19.9766 13.6245 19.9883 13.2847 19.9883 10.5698C19.9883 7.85498 19.9766 7.51514 19.9297 6.44873C19.8828 5.38623 19.7109 4.65576 19.4648 4.02295C19.2188 3.35889 18.8789 2.80029 18.3203 2.24561C17.7656 1.69092 17.207 1.34717 16.5508 1.09326C15.9141 0.847168 15.1875 0.675293 14.125 0.628418C13.0547 0.577637 12.7148 0.565918 10 0.565918Z" fill="white"/>
<path id="Vector_2" d="M10 5.4292C7.16406 5.4292 4.86328 7.72998 4.86328 10.5659C4.86328 13.4019 7.16406 15.7026 10 15.7026C12.8359 15.7026 15.1367 13.4019 15.1367 10.5659C15.1367 7.72998 12.8359 5.4292 10 5.4292ZM10 13.8979C8.16016 13.8979 6.66797 12.4058 6.66797 10.5659C6.66797 8.72607 8.16016 7.23389 10 7.23389C11.8398 7.23389 13.332 8.72607 13.332 10.5659C13.332 12.4058 11.8398 13.8979 10 13.8979Z" fill="white"/>
<path id="Vector_3" d="M16.5391 5.22608C16.5391 5.89014 16 6.4253 15.3398 6.4253C14.6758 6.4253 14.1406 5.88623 14.1406 5.22608C14.1406 4.56201 14.6797 4.02686 15.3398 4.02686C16 4.02686 16.5391 4.56592 16.5391 5.22608Z" fill="white"/>
</g>
</g>
<defs>
<clipPath id="clip0_2469_81">
<rect width="20" height="20" fill="white" transform="translate(0 0.565918)"/>
</clipPath>
</defs>
</svg>
