<svg width="20" height="21" viewBox="0 0 20 21" fill="none" xmlns="http://www.w3.org/2000/svg">
<g id="LinkedIn" clip-path="url(#clip0_2469_78)">
<g id="Group">
<path id="Vector" d="M18.5195 0.565918H1.47656C0.660156 0.565918 0 1.21045 0 2.00732V19.1206C0 19.9175 0.660156 20.5659 1.47656 20.5659H18.5195C19.3359 20.5659 20 19.9175 20 19.1245V2.00732C20 1.21045 19.3359 0.565918 18.5195 0.565918ZM5.93359 17.6089H2.96484V8.06201H5.93359V17.6089ZM4.44922 6.76123C3.49609 6.76123 2.72656 5.9917 2.72656 5.04248C2.72656 4.09326 3.49609 3.32373 4.44922 3.32373C5.39844 3.32373 6.16797 4.09326 6.16797 5.04248C6.16797 5.98779 5.39844 6.76123 4.44922 6.76123ZM17.043 17.6089H14.0781V12.9683C14.0781 11.8628 14.0586 10.437 12.5352 10.437C10.9922 10.437 10.7578 11.644 10.7578 12.8901V17.6089H7.79688V8.06201H10.6406V9.3667H10.6797C11.0742 8.6167 12.043 7.82373 13.4844 7.82373C16.4883 7.82373 17.043 9.80029 17.043 12.3706V17.6089Z" fill="white"/>
</g>
</g>
<defs>
<clipPath id="clip0_2469_78">
<rect width="20" height="20" fill="white" transform="translate(0 0.565918)"/>
</clipPath>
</defs>
</svg>
