<svg width="167" height="41" viewBox="0 0 167 41" fill="none" xmlns="http://www.w3.org/2000/svg">
<g id="Logo 5" clip-path="url(#clip0_2409_230)">
<path id="Vector" d="M47.8259 12.9404H51.9996V30.2746H47.8259V12.9404ZM53.6639 23.7543C53.6639 19.4607 56.2642 16.8872 60.1648 16.8872C64.0655 16.8872 66.6659 19.4607 66.6659 23.7543C66.6659 28.0477 64.1565 30.6479 60.1648 30.6479C56.1733 30.6479 53.6639 28.1411 53.6639 23.7543ZM62.5313 23.7543C62.5313 21.3942 61.6341 20.0074 60.2039 20.0074C58.7736 20.0074 57.8895 21.3408 57.8895 23.7543C57.8895 26.1676 58.7736 27.4877 60.2039 27.4877C61.6341 27.4877 62.5572 26.1677 62.5572 23.7675L62.5313 23.7543ZM68.3302 31.1679H72.3608C72.5443 31.613 72.8648 31.9842 73.2733 32.2249C73.6818 32.4657 74.1559 32.5628 74.6233 32.5013C76.2225 32.5013 77.0546 31.6213 77.0546 30.3146V27.9145H77.0676C76.7232 28.6618 76.1662 29.2847 75.47 29.7012C74.7738 30.1177 73.9709 30.3083 73.167 30.2478C70.1115 30.2478 68.0832 27.8611 68.0832 23.7543C68.0832 19.6473 70.0205 17.0872 73.284 17.0872C74.1085 17.0419 74.9264 17.2601 75.6249 17.7114C76.3235 18.1628 76.8684 18.8252 77.1846 19.6073H77.0676V17.1939H81.2023V30.1812C81.2023 33.3147 78.4979 35.2748 74.5192 35.2748C70.9046 35.2614 68.5902 33.5681 68.3562 31.1813L68.3302 31.1679ZM77.0676 23.7543C77.0676 21.6608 76.1315 20.3407 74.6492 20.3407C73.167 20.3407 72.2568 21.6742 72.2568 23.7543C72.2568 25.8344 73.154 27.0611 74.6492 27.0611C76.1445 27.0611 77.0676 25.9276 77.0676 23.7543ZM82.8536 23.7543C82.8536 19.4607 85.454 16.8872 89.3546 16.8872C93.2553 16.8872 95.8556 19.4607 95.8556 23.7543C95.8556 28.0477 93.3332 30.6479 89.3546 30.6479C85.376 30.6479 82.8795 28.1411 82.8795 23.7543H82.8536ZM91.721 23.7543C91.721 21.3942 90.8108 20.0074 89.3936 20.0074C87.9763 20.0074 87.0792 21.3408 87.0792 23.7543C87.0792 26.1676 87.9633 27.4877 89.3936 27.4877C90.8239 27.4877 91.747 26.1677 91.747 23.7675L91.721 23.7543ZM97.5459 14.0337C97.5278 13.5977 97.6372 13.1662 97.8602 12.7945C98.0832 12.4228 98.4096 12.1281 98.7972 11.9482C99.1849 11.7683 99.6162 11.7114 100.036 11.7849C100.455 11.8585 100.844 12.059 101.151 12.3608C101.458 12.6626 101.671 13.0517 101.76 13.4783C101.85 13.9048 101.814 14.3492 101.655 14.7543C101.497 15.1593 101.224 15.5065 100.872 15.7512C100.519 15.9958 100.104 16.1268 99.6783 16.1272C99.4063 16.1343 99.1357 16.0859 98.8821 15.9849C98.6285 15.8838 98.3971 15.7322 98.2012 15.5387C98.0052 15.3451 97.8486 15.1136 97.7406 14.8576C97.6326 14.6015 97.5752 14.3261 97.572 14.0471L97.5459 14.0337ZM97.5459 17.1806H101.772V30.3278H97.6109L97.5459 17.1806ZM116.971 23.7543C116.971 28.0345 115.099 30.5146 111.913 30.5146C111.098 30.5662 110.286 30.3598 109.589 29.9234C108.891 29.4871 108.342 28.8417 108.013 28.0745H107.935V34.5548H103.761V17.2206H107.908V19.5673H107.987C108.304 18.785 108.849 18.1219 109.547 17.6686C110.244 17.2152 111.062 16.9936 111.887 17.0339C115.163 17.0072 117.049 19.4741 117.049 23.7675L116.971 23.7543ZM112.72 23.7543C112.72 21.6742 111.77 20.3274 110.301 20.3274C108.831 20.3274 107.908 21.6608 107.896 23.7543C107.883 25.8476 108.831 27.1677 110.301 27.1677C111.77 27.1677 112.798 25.9276 112.798 23.7675L112.72 23.7543ZM124.096 16.8738C127.594 16.8738 129.765 18.5673 129.791 21.2874H125.981C125.981 20.3407 125.215 19.7541 124.07 19.7541C122.926 19.7541 122.38 20.2074 122.38 20.8874C122.38 21.5674 122.861 21.7808 123.823 21.9808L126.502 22.5408C129.102 23.1009 130.142 24.1676 130.142 26.1544C130.142 28.8211 127.736 30.6346 124.162 30.6346C120.586 30.6346 118.258 28.8745 118.09 26.1944H122.133C122.25 27.1677 123.004 27.7411 124.226 27.7411C125.449 27.7411 126.02 27.3411 126.02 26.6344C126.02 25.9276 125.631 25.8076 124.629 25.5944L122.211 25.0743C119.701 24.5276 118.388 23.1809 118.388 21.1674C118.467 18.5539 120.65 16.8872 124.174 16.8872L124.096 16.8738ZM144.119 30.3146H140.076V27.8477H139.998C139.772 28.6706 139.279 29.3897 138.6 29.8866C137.922 30.3835 137.098 30.6285 136.266 30.5812C135.637 30.6023 135.012 30.4867 134.43 30.2423C133.848 29.9977 133.324 29.6298 132.89 29.1627C132.457 28.6955 132.125 28.1397 131.916 27.5316C131.706 26.9235 131.625 26.277 131.676 25.6344V17.1939H135.85V24.7143C135.85 26.261 136.643 27.1011 137.944 27.1011C138.249 27.0987 138.549 27.0293 138.826 26.8974C139.103 26.7655 139.348 26.5744 139.547 26.3368C139.745 26.0991 139.891 25.8207 139.977 25.5201C140.061 25.2194 140.081 24.9037 140.037 24.5943V17.1939H144.198L144.119 30.3146ZM146.134 17.1806H150.192V19.7141H150.282C150.506 18.9025 150.987 18.1899 151.648 17.6882C152.309 17.1863 153.114 16.9234 153.936 16.9406C154.762 16.867 155.584 17.1117 156.243 17.6272C156.902 18.1426 157.35 18.8914 157.498 19.7273H157.681C157.94 18.887 158.464 18.1582 159.17 17.6542C159.875 17.1502 160.723 16.8993 161.582 16.9406C162.152 16.9183 162.721 17.0198 163.251 17.2387C163.78 17.4574 164.26 17.7885 164.655 18.2102C165.052 18.6318 165.357 19.1346 165.551 19.6856C165.746 20.2366 165.823 20.8233 165.781 21.4074V30.3278H161.582V22.5008C161.582 21.1674 160.97 20.4207 159.787 20.4207C159.524 20.4163 159.264 20.4702 159.024 20.5786C158.784 20.6869 158.569 20.8473 158.395 21.0487C158.221 21.2501 158.092 21.4876 158.015 21.7452C157.939 22.0028 157.919 22.2742 157.953 22.5408V30.3278H153.975V22.4608C153.975 21.1274 153.338 20.4207 152.194 20.4207C151.929 20.4186 151.666 20.4746 151.424 20.5851C151.182 20.6955 150.964 20.8578 150.789 21.0612C150.613 21.2646 150.481 21.5042 150.403 21.7639C150.324 22.0237 150.302 22.2977 150.334 22.5675V30.3278H146.161L146.134 17.1806Z" fill="#1D2130"/>
<path id="Vector_2" d="M39.5702 14.0738C39.5704 11.4199 38.7889 8.82788 37.3282 6.63718C35.8675 4.44648 33.7957 2.75928 31.3842 1.79655C28.9727 0.833832 26.3338 0.640487 23.8133 1.24184C21.2928 1.8432 19.0082 3.21121 17.2586 5.16669H1.03198V40.2884H35.2925V23.8743C36.6372 22.6408 37.7132 21.1305 38.4503 19.4418C39.1873 17.7531 39.569 15.924 39.5702 14.0738ZM32.9782 14.0738C32.9807 15.3455 32.6154 16.5894 31.9283 17.6481C31.2413 18.7067 30.2634 19.5325 29.1185 20.0211C27.9736 20.5096 26.713 20.6387 25.4965 20.3922C24.2799 20.1458 23.1621 19.5347 22.2843 18.6364C21.4065 17.7381 20.8083 16.593 20.5655 15.3459C20.3227 14.0988 20.446 12.8059 20.9199 11.6307C21.3939 10.4556 22.1971 9.45102 23.2281 8.74422C24.2589 8.03743 25.471 7.66015 26.7111 7.66014C28.371 7.66014 29.9631 8.33544 31.138 9.53785C32.3129 10.7403 32.9747 12.3716 32.9782 14.0738ZM28.7004 33.5281H7.62405V11.9271H14.0471C13.923 12.6357 13.8578 13.3538 13.852 14.0738C13.8555 17.5702 15.2114 20.9224 17.6222 23.3947C20.033 25.8671 23.3017 27.2576 26.7111 27.2612C27.3776 27.2575 28.0428 27.1996 28.7004 27.0878V33.5281Z" fill="#1D2130"/>
</g>
<defs>
<clipPath id="clip0_2409_230">
<rect width="165.987" height="40" fill="white" transform="translate(0.226318 0.565918)"/>
</clipPath>
</defs>
</svg>
