<svg width="167" height="41" viewBox="0 0 167 41" fill="none" xmlns="http://www.w3.org/2000/svg">
<g id="Logo 2">
<path id="Vector" d="M41.0979 10.323H44.8985V29.2753H41.0979V10.323Z" fill="#1D2130"/>
<path id="Vector_2" d="M47.0262 22.7836C47.0262 21.4201 47.4173 20.0872 48.1497 18.954C48.8823 17.8209 49.9233 16.9383 51.1409 16.4183C52.3584 15.8983 53.6976 15.7643 54.9889 16.0332C56.28 16.3021 57.4651 16.9618 58.3937 17.9288C59.3224 18.8956 59.9528 20.1263 60.2051 21.4646C60.4575 22.8029 60.3203 24.1886 59.8111 25.4461C59.3018 26.7036 58.4434 27.7763 57.3447 28.5282C56.2459 29.2801 54.9563 29.6773 53.6392 29.6695C52.7657 29.6766 51.8996 29.5029 51.0917 29.1589C50.2838 28.8149 49.5503 28.3073 48.9343 27.666C48.3185 27.0247 47.8324 26.2624 47.5047 25.4241C47.1771 24.5857 47.0143 23.688 47.0262 22.7836ZM56.5531 22.7836C56.5381 22.1959 56.3561 21.6256 56.0298 21.1443C55.7034 20.6629 55.2473 20.292 54.7183 20.0776C54.1893 19.8633 53.6112 19.8152 53.0559 19.9393C52.5007 20.0634 51.9932 20.3543 51.5968 20.7754C51.2004 21.1967 50.9327 21.7295 50.8273 22.3073C50.7219 22.8851 50.7834 23.4823 51.004 24.0242C51.2247 24.566 51.5948 25.0285 52.068 25.3537C52.5413 25.679 53.0965 25.8526 53.6646 25.8528C54.0513 25.8606 54.4354 25.7857 54.7929 25.6329C55.1504 25.48 55.4737 25.2525 55.7424 24.9644C56.0111 24.6764 56.2195 24.334 56.3546 23.9588C56.4898 23.5835 56.5487 23.1835 56.5277 22.7836H56.5531Z" fill="#1D2130"/>
<path id="Vector_3" d="M75.2899 16.2918V28.6338C75.2899 32.9882 71.996 34.8376 68.6641 34.8376C67.4889 34.9375 66.3102 34.6957 65.2604 34.1396C64.2106 33.5834 63.3318 32.735 62.7225 31.6898L65.9277 29.7749C66.1875 30.317 66.6006 30.7643 67.1121 31.0573C67.6237 31.3502 68.2092 31.4747 68.7908 31.4144C69.1613 31.4616 69.5374 31.4235 69.892 31.3028C70.2467 31.1821 70.5712 30.9818 70.8423 30.716C71.1135 30.4504 71.3245 30.126 71.4605 29.766C71.5964 29.406 71.6539 29.0194 71.6286 28.6338V27.4402C71.1864 27.9954 70.6252 28.4362 69.9896 28.7276C69.3541 29.019 68.6617 29.153 67.9674 29.1191C66.2874 29.1191 64.6763 28.4281 63.4883 27.1983C62.3004 25.9684 61.633 24.3004 61.633 22.5612C61.633 20.8219 62.3004 19.1539 63.4883 17.924C64.6763 16.6942 66.2874 16.0032 67.9674 16.0032C68.6617 15.9693 69.3541 16.1033 69.9896 16.3947C70.6252 16.6861 71.1864 17.1269 71.6286 17.6821V16.3705L75.2899 16.2918ZM71.6286 22.5218C71.6539 21.8943 71.4973 21.2734 71.179 20.7387C70.8606 20.2041 70.3951 19.7803 69.8422 19.5218C69.2893 19.2633 68.6743 19.182 68.0764 19.2882C67.4786 19.3945 66.925 19.6834 66.4871 20.118C66.0491 20.5525 65.7467 21.1127 65.6187 21.7267C65.4907 22.3406 65.5431 22.9801 65.7691 23.563C65.995 24.1459 66.3841 24.6455 66.8865 24.9975C67.3889 25.3495 67.9815 25.5379 68.5882 25.5385C68.984 25.5679 69.3815 25.5112 69.7547 25.3718C70.1281 25.2324 70.469 25.0136 70.7556 24.7293C71.0421 24.4449 71.2678 24.1017 71.4183 23.7214C71.5686 23.3412 71.6403 22.9325 71.6286 22.5218Z" fill="#1D2130"/>
<path id="Vector_4" d="M77.4313 22.7837C77.4313 21.4213 77.8217 20.0895 78.5531 18.9569C79.2844 17.8242 80.324 16.9416 81.54 16.4209C82.7561 15.9001 84.0941 15.7645 85.3846 16.0312C86.6751 16.298 87.8602 16.9551 88.7899 17.9194C89.7195 18.8837 90.352 20.1118 90.6072 21.4485C90.8624 22.7851 90.7289 24.1699 90.2235 25.428C89.7181 26.6859 88.8637 27.7605 87.7683 28.5154C86.6729 29.2705 85.3857 29.6722 84.0697 29.6696C83.1945 29.6783 82.3264 29.5061 81.5163 29.163C80.7063 28.82 79.9705 28.3129 79.3522 27.6715C78.7339 27.0302 78.2455 26.2675 77.9156 25.4282C77.5858 24.5889 77.4211 23.6898 77.4313 22.7837ZM86.9582 22.7837C86.9432 22.1953 86.7608 21.6246 86.434 21.143C86.107 20.6615 85.6501 20.2904 85.1205 20.0766C84.5907 19.8626 84.0119 19.8153 83.4564 19.9405C82.9008 20.0657 82.3934 20.3578 81.9974 20.7803C81.6016 21.2027 81.3349 21.7368 81.231 22.3154C81.127 22.8941 81.1903 23.4917 81.4128 24.0334C81.6354 24.5749 82.0075 25.0366 82.4823 25.3602C82.9573 25.6838 83.5138 25.8552 84.0824 25.8529C84.4691 25.8607 84.8532 25.7858 85.2107 25.633C85.5682 25.4801 85.8915 25.2526 86.1601 24.9645C86.4289 24.6765 86.6373 24.3341 86.7724 23.9589C86.9076 23.5836 86.9665 23.1836 86.9455 22.7837H86.9582Z" fill="#1D2130"/>
<path id="Vector_5" d="M92.469 12.815C92.469 12.3533 92.6012 11.902 92.849 11.518C93.0968 11.1341 93.449 10.8348 93.8611 10.6582C94.2731 10.4815 94.7265 10.4352 95.1639 10.5253C95.6014 10.6154 96.0032 10.8378 96.3186 11.1643C96.634 11.4907 96.8487 11.9067 96.9358 12.3597C97.0227 12.8125 96.9781 13.2819 96.8074 13.7085C96.6366 14.1351 96.3476 14.4998 95.9768 14.7563C95.606 15.0128 95.17 15.1497 94.724 15.1497C94.128 15.1429 93.5583 14.8947 93.1368 14.4583C92.7153 14.022 92.4756 13.4322 92.469 12.815ZM92.8364 16.2908H96.6369V29.2755H92.8364V16.2908Z" fill="#1D2130"/>
<path id="Vector_6" d="M112.904 22.7832C112.947 23.6468 112.824 24.5106 112.543 25.3247C112.262 26.139 111.828 26.8877 111.266 27.5276C110.705 28.1676 110.026 28.6862 109.27 29.0537C108.515 29.4213 107.696 29.6303 106.861 29.669C106.153 29.7178 105.444 29.6004 104.786 29.3256C104.128 29.0508 103.538 28.6257 103.061 28.082V34.4957H99.26V16.2909H103.061V17.5107C103.539 16.9686 104.129 16.5454 104.787 16.2728C105.445 16.0003 106.154 15.8854 106.861 15.9367C107.692 15.9755 108.508 16.1833 109.261 16.5484C110.015 16.9134 110.691 17.4285 111.252 18.0643C111.813 18.7 112.248 19.444 112.532 20.2536C112.815 21.0634 112.941 21.9229 112.904 22.7832ZM109.104 22.7832C109.089 22.174 108.9 21.583 108.562 21.0842C108.224 20.5853 107.752 20.2009 107.204 19.9791C106.655 19.7572 106.056 19.7078 105.481 19.837C104.905 19.9662 104.379 20.2684 103.97 20.7055C103.56 21.1428 103.283 21.6955 103.175 22.2945C103.068 22.8935 103.132 23.5122 103.363 24.073C103.594 24.6337 103.978 25.1117 104.47 25.447C104.961 25.7821 105.537 25.9596 106.126 25.9572C106.53 25.975 106.932 25.9042 107.307 25.7497C107.682 25.5953 108.02 25.3604 108.302 25.0607C108.583 24.761 108.8 24.4032 108.938 24.0107C109.076 23.6182 109.132 23.1999 109.104 22.7832Z" fill="#1D2130"/>
<path id="Vector_7" d="M124.47 25.38C124.47 28.3704 121.936 29.6426 119.251 29.6426C118.156 29.7447 117.055 29.5043 116.093 28.9525C115.132 28.4007 114.351 27.563 113.854 26.5473L117.122 24.6324C117.252 25.1004 117.533 25.5082 117.918 25.7875C118.303 26.0669 118.769 26.2008 119.238 26.167C120.137 26.167 120.594 25.8784 120.594 25.3537C120.594 23.9242 114.424 24.6849 114.424 20.1861C114.424 17.3531 116.73 15.9366 119.34 15.9366C120.332 15.8907 121.317 16.1236 122.192 16.6109C123.065 17.0981 123.796 17.8214 124.305 18.7041L121.037 20.4878C120.893 20.1494 120.656 19.8616 120.358 19.6591C120.058 19.4566 119.709 19.3481 119.353 19.3468C118.694 19.3468 118.3 19.609 118.3 20.0681C118.3 21.5633 124.47 20.5796 124.47 25.38Z" fill="#1D2130"/>
<path id="Vector_8" d="M138.241 16.291V29.2757H134.44V28.0559C134.008 28.5958 133.46 29.0232 132.839 29.3034C132.219 29.5836 131.543 29.709 130.867 29.6692C128.334 29.6692 126.167 27.7937 126.167 24.2917V16.291H129.968V23.7015C129.938 24.0113 129.974 24.3241 130.072 24.6184C130.171 24.9127 130.329 25.1813 130.537 25.4057C130.746 25.6302 130.999 25.8052 131.279 25.9185C131.559 26.0319 131.86 26.081 132.159 26.0623C133.528 26.0623 134.49 25.2229 134.49 23.4392V16.291H138.241Z" fill="#1D2130"/>
<path id="Vector_9" d="M159.776 21.3013V29.2758H155.976V21.6424C155.976 20.3308 155.38 19.5176 154.177 19.5176C152.973 19.5176 152.213 20.4226 152.213 21.9571V29.2758H148.412V21.6424C148.412 20.3308 147.817 19.5176 146.613 19.5176C145.41 19.5176 144.65 20.4226 144.65 21.9571V29.2758H140.849V16.2911H144.65V17.4846C145.043 16.9573 145.557 16.5398 146.146 16.2695C146.734 15.9994 147.378 15.885 148.02 15.9369C148.662 15.9023 149.303 16.0412 149.878 16.3401C150.453 16.6391 150.944 17.0877 151.3 17.642C151.718 17.0629 152.271 16.6028 152.907 16.3045C153.543 16.0064 154.241 15.8799 154.936 15.9369C157.902 15.9369 159.776 18.0617 159.776 21.3013Z" fill="#1D2130"/>
<path id="Vector_10" d="M18.4578 6.91285V1.33862H1.48172V39.6369H18.4578V34.0626C14.9803 34.0626 11.6451 32.6325 9.18613 30.0866C6.72713 27.5409 5.34568 24.0881 5.34568 20.4877C5.34568 16.8874 6.72713 13.4346 9.18613 10.8889C11.6451 8.34306 14.9803 6.91285 18.4578 6.91285Z" fill="#1D2130"/>
<path id="Vector_11" d="M18.4592 6.91357V34.0633C21.9367 34.0633 25.2719 32.6332 27.7309 30.0873C30.1899 27.5416 31.5713 24.0888 31.5713 20.4885C31.5713 16.8882 30.1899 13.4353 27.7309 10.8896C25.2719 8.34378 21.9367 6.91357 18.4592 6.91357Z" fill="#1D2130"/>
<path id="Vector_12" d="M162.969 16.2124C164.509 16.2124 165.757 14.9205 165.757 13.3269C165.757 11.7333 164.509 10.4414 162.969 10.4414C161.43 10.4414 160.182 11.7333 160.182 13.3269C160.182 14.9205 161.43 16.2124 162.969 16.2124Z" fill="#1D2130"/>
</g>
</svg>
