<svg width="188" height="41" viewBox="0 0 188 41" fill="none" xmlns="http://www.w3.org/2000/svg">
<g id="Logo 4" clip-path="url(#clip0_2409_219)">
<path id="Vector" d="M60.474 32.4314C59.5311 32.4836 58.5984 32.2098 57.8265 31.6543C57.504 31.4102 57.2445 31.0896 57.0705 30.72C56.8966 30.3505 56.8132 29.9432 56.8279 29.5336V14.5262C56.8201 14.4626 56.8268 14.3981 56.8471 14.3376C56.8675 14.2771 56.9011 14.2221 56.9454 14.1768C56.9898 14.1315 57.0437 14.0972 57.1029 14.0763C57.1622 14.0555 57.2254 14.0488 57.2876 14.0567H59.9509C60.2521 14.0567 60.3947 14.2186 60.3947 14.5262V28.3679C60.3947 28.9831 60.6643 29.2907 61.219 29.2907C61.4543 29.3007 61.6895 29.2733 61.9166 29.2098C62.2336 29.2098 62.4081 29.3069 62.4239 29.5983L62.6617 31.622C62.6731 31.6809 62.6721 31.7418 62.6585 31.8003C62.645 31.8589 62.6193 31.9137 62.5833 31.9613C62.5472 32.0088 62.5016 32.048 62.4495 32.076C62.3974 32.104 62.34 32.1204 62.2812 32.1239C61.6978 32.3207 61.0883 32.4244 60.474 32.4314Z" fill="#1D2130"/>
<path id="Vector_2" d="M75.4557 30.6999C74.1174 31.829 72.4358 32.4467 70.6999 32.4467C68.9639 32.4467 67.2823 31.829 65.944 30.6999C64.7678 29.4872 64.1079 27.8494 64.1079 26.1426C64.1079 24.4358 64.7678 22.7979 65.944 21.5853C67.2849 20.4621 68.9655 19.8481 70.6999 19.8481C72.4342 19.8481 74.1149 20.4621 75.4557 21.5853C76.6048 22.8092 77.2463 24.439 77.2463 26.1346C77.2463 27.8301 76.6048 29.4599 75.4557 30.6838V30.6999ZM68.4488 28.5629C69.0698 29.1374 69.8777 29.4556 70.7157 29.4556C71.5536 29.4556 72.3617 29.1374 72.9827 28.5629C73.5447 27.903 73.8543 27.0577 73.8543 26.1831C73.8543 25.3084 73.5447 24.4632 72.9827 23.8032C72.3617 23.2288 71.5536 22.9106 70.7157 22.9106C69.8777 22.9106 69.0698 23.2288 68.4488 23.8032C67.8866 24.4632 67.5772 25.3084 67.5772 26.1831C67.5772 27.0577 67.8866 27.903 68.4488 28.5629Z" fill="#1D2130"/>
<path id="Vector_3" d="M91.9104 20.2562C92.2116 20.2562 92.3543 20.4181 92.3543 20.7257V32.3333C92.3819 33.1168 92.2384 33.8967 91.9341 34.6164C91.6297 35.3362 91.1721 35.9775 90.5947 36.494C89.3128 37.6102 87.6644 38.1887 85.9815 38.113C84.4614 38.1675 82.9616 37.7437 81.6854 36.8988C81.1403 36.5332 80.6747 36.0572 80.3175 35.5002C79.9602 34.9433 79.7189 34.3172 79.6086 33.661C79.6086 33.3371 79.6086 33.1914 80.0367 33.1914H82.7C82.813 33.1954 82.9225 33.2326 83.0154 33.2986C83.1082 33.3647 83.1804 33.4568 83.2231 33.5638C83.3958 34.0555 83.7402 34.4648 84.1901 34.7132C84.7384 35.0021 85.3487 35.1468 85.9656 35.1341C86.3378 35.155 86.7104 35.0998 87.0615 34.9719C87.4127 34.8441 87.7353 34.6461 88.0106 34.3895C88.2622 34.121 88.4579 33.8033 88.5859 33.4554C88.714 33.1077 88.7717 32.737 88.7557 32.3657V31.3459C87.8021 32.0621 86.6416 32.4324 85.4584 32.3981C84.6302 32.429 83.8045 32.2884 83.0308 31.9852C82.2571 31.682 81.5515 31.2222 80.9562 30.6335C79.8132 29.426 79.1743 27.8123 79.1743 26.133C79.1743 24.4535 79.8132 22.8398 80.9562 21.6323C81.5544 21.0488 82.2609 20.5935 83.0341 20.2932C83.8074 19.993 84.6315 19.8537 85.4584 19.8839C86.6758 19.851 87.8676 20.2453 88.8349 21.001V20.7419C88.8276 20.6799 88.8341 20.617 88.8535 20.5577C88.873 20.4985 88.9053 20.4444 88.9477 20.3995C88.9902 20.3545 89.0419 20.3198 89.0992 20.2979C89.1566 20.2758 89.2179 20.2672 89.2789 20.2724L91.9104 20.2562ZM85.7595 29.5164C86.168 29.5293 86.5742 29.4505 86.9495 29.2855C87.3247 29.1204 87.66 28.8732 87.9314 28.5613C88.4584 27.8662 88.7444 27.0121 88.7444 26.133C88.7444 25.2539 88.4584 24.3997 87.9314 23.7046C87.6608 23.3968 87.3278 23.1533 86.9552 22.9911C86.5828 22.829 86.18 22.7519 85.7754 22.7656C85.3623 22.7523 84.9512 22.8309 84.5708 22.9958C84.1903 23.1607 83.8494 23.4081 83.5719 23.7207C82.988 24.3856 82.6809 25.2567 82.7158 26.1491C82.6872 27.0327 82.9873 27.8946 83.5559 28.5613C83.8342 28.8731 84.1753 29.1199 84.5556 29.2848C84.9359 29.4496 85.3466 29.5287 85.7595 29.5164Z" fill="#1D2130"/>
<path id="Vector_4" d="M106.035 30.6989C104.694 31.8221 103.013 32.4361 101.279 32.4361C99.5447 32.4361 97.864 31.8221 96.5232 30.6989C95.373 29.4723 94.731 27.8398 94.731 26.1416C94.731 24.4434 95.373 22.8108 96.5232 21.5843C97.8652 20.4639 99.5455 19.8518 101.279 19.8518C103.012 19.8518 104.693 20.4639 106.035 21.5843C107.184 22.8081 107.826 24.438 107.826 26.1335C107.826 27.829 107.184 29.4589 106.035 30.6826V30.6989ZM99.0121 28.5619C99.316 28.8571 99.6742 29.0878 100.066 29.2407C100.458 29.3935 100.876 29.4655 101.295 29.4523C101.712 29.4633 102.126 29.3904 102.515 29.2376C102.904 29.0847 103.26 28.8552 103.562 28.5619C104.115 27.8975 104.418 27.054 104.418 26.182C104.418 25.3101 104.115 24.4666 103.562 23.8023C103.26 23.509 102.904 23.2794 102.515 23.1265C102.126 22.9737 101.712 22.9008 101.295 22.9118C100.876 22.8986 100.458 22.9706 100.066 23.1234C99.6742 23.2763 99.316 23.507 99.0121 23.8023C98.4592 24.4666 98.1556 25.3101 98.1556 26.182C98.1556 27.054 98.4592 27.8975 99.0121 28.5619Z" fill="#1D2130"/>
<path id="Vector_5" d="M113.55 17.5051C113.131 17.8796 112.593 18.0861 112.036 18.0861C111.479 18.0861 110.941 17.8796 110.522 17.5051C110.332 17.322 110.181 17.1011 110.077 16.8562C109.974 16.6111 109.92 16.3471 109.92 16.0804C109.92 15.8136 109.974 15.5496 110.077 15.3047C110.181 15.0596 110.332 14.8389 110.522 14.6558C110.945 14.2905 111.482 14.0901 112.036 14.0901C112.59 14.0901 113.127 14.2905 113.55 14.6558C113.74 14.8389 113.891 15.0596 113.995 15.3047C114.098 15.5496 114.152 15.8136 114.152 16.0804C114.152 16.3471 114.098 16.6111 113.995 16.8562C113.891 17.1011 113.74 17.322 113.55 17.5051ZM113.883 32.4315C112.941 32.4787 112.009 32.2054 111.235 31.6543C110.918 31.4066 110.663 31.0848 110.492 30.7159C110.321 30.347 110.239 29.9416 110.252 29.5336V20.7267C110.245 20.6631 110.251 20.5986 110.272 20.5381C110.292 20.4776 110.326 20.4226 110.37 20.3773C110.415 20.332 110.468 20.2977 110.528 20.2768C110.587 20.256 110.65 20.2493 110.712 20.2572H113.376C113.677 20.2572 113.819 20.4191 113.819 20.7267V28.368C113.819 28.9831 114.089 29.2907 114.628 29.2907C114.868 29.2996 115.109 29.2723 115.341 29.2098C115.658 29.2098 115.833 29.307 115.849 29.5983L116.086 31.6221C116.098 31.6811 116.097 31.7418 116.083 31.8004C116.07 31.8589 116.044 31.9138 116.008 31.9613C115.972 32.0089 115.926 32.048 115.874 32.076C115.822 32.1042 115.765 32.1204 115.706 32.1239C115.117 32.3218 114.502 32.4256 113.883 32.4315Z" fill="#1D2130"/>
<path id="Vector_6" d="M125.885 19.8683C126.717 19.8348 127.546 19.9723 128.325 20.2726C129.105 20.573 129.816 21.0301 130.419 21.6168C131.54 22.8455 132.163 24.4624 132.163 26.1418C132.163 27.821 131.54 29.438 130.419 30.6667C129.82 31.2585 129.109 31.7201 128.329 32.0234C127.55 32.3267 126.719 32.4655 125.885 32.4312C124.698 32.4581 123.534 32.0887 122.572 31.3789V37.2232C122.572 37.5308 122.413 37.6766 122.112 37.6766H119.449C119.388 37.6881 119.325 37.6845 119.266 37.6658C119.207 37.647 119.153 37.614 119.11 37.5694C119.066 37.5247 119.034 37.4699 119.015 37.4095C118.997 37.3492 118.993 37.2852 119.005 37.2232V23.9481C119.023 23.8183 119.012 23.6858 118.972 23.5611C118.931 23.4366 118.863 23.3233 118.772 23.2305C118.681 23.1378 118.57 23.0679 118.448 23.0267C118.326 22.9854 118.197 22.9739 118.07 22.9928H117.546C117.198 22.9928 117.023 22.8634 117.023 22.6043V20.694C117.015 20.5758 117.047 20.4583 117.113 20.3611C117.179 20.2638 117.276 20.1928 117.388 20.1598C117.936 19.9562 118.517 19.8575 119.1 19.8683C119.682 19.8158 120.266 19.9418 120.777 20.2301C121.288 20.5187 121.703 20.9563 121.969 21.4873C122.48 20.9598 123.091 20.5442 123.764 20.2659C124.437 19.9874 125.159 19.8522 125.885 19.8683ZM123.412 28.562C123.695 28.8637 124.034 29.1038 124.41 29.2678C124.786 29.4318 125.191 29.5163 125.6 29.5163C126.009 29.5163 126.414 29.4318 126.789 29.2678C127.165 29.1038 127.505 28.8637 127.788 28.562C128.383 27.8838 128.696 26.9952 128.659 26.0851C128.701 25.1741 128.387 24.2836 127.788 23.6081C127.505 23.3064 127.165 23.0663 126.789 22.9023C126.414 22.7383 126.009 22.6538 125.6 22.6538C125.191 22.6538 124.786 22.7383 124.41 22.9023C124.034 23.0663 123.695 23.3064 123.412 23.6081C122.835 24.2954 122.535 25.1806 122.572 26.0851C122.54 26.9889 122.839 27.8722 123.412 28.562Z" fill="#1D2130"/>
<path id="Vector_7" d="M139.643 32.4304C138.22 32.4902 136.81 32.1425 135.569 31.4267C135.071 31.1207 134.648 30.7042 134.329 30.2081C134.011 29.7121 133.807 29.1493 133.73 28.5613C133.73 28.2374 133.842 28.0756 134.19 28.0756H136.521C136.631 28.08 136.739 28.1156 136.831 28.1784C136.924 28.2413 136.997 28.3289 137.043 28.4317C137.376 29.3059 138.248 29.7431 139.643 29.7431C140.13 29.7658 140.614 29.6656 141.055 29.4516C141.206 29.3816 141.336 29.2709 141.432 29.1312C141.526 28.9915 141.582 28.8281 141.594 28.6584C141.594 28.2374 141.34 27.946 140.833 27.7517C140.231 27.5472 139.608 27.4115 138.977 27.3471C138.23 27.2606 137.489 27.1254 136.758 26.9423C136.047 26.778 135.402 26.4002 134.903 25.8576C134.61 25.4887 134.394 25.0623 134.269 24.6045C134.143 24.1468 134.112 23.6677 134.176 23.197C134.24 22.7263 134.398 22.274 134.641 21.8684C134.883 21.4627 135.205 21.1124 135.585 20.8389C136.728 20.0956 138.068 19.7335 139.421 19.8028C140.732 19.7576 142.028 20.0885 143.162 20.758C143.62 21.0225 144.014 21.3881 144.315 21.8277C144.617 22.2675 144.819 22.7703 144.907 23.2997C144.907 23.6235 144.764 23.7854 144.479 23.7854H142.132C142.033 23.7913 141.935 23.7668 141.85 23.7148C141.766 23.6628 141.698 23.5858 141.656 23.494C141.499 23.1106 141.204 22.8033 140.833 22.636C140.412 22.4115 139.943 22.3001 139.469 22.3122C139.004 22.2864 138.54 22.381 138.121 22.5875C137.974 22.6456 137.847 22.7476 137.757 22.8804C137.666 23.0131 137.616 23.1704 137.615 23.3321C137.625 23.5535 137.704 23.7658 137.841 23.9376C137.978 24.1095 138.165 24.2321 138.375 24.2873C138.984 24.5215 139.617 24.6845 140.261 24.773C141.003 24.8726 141.738 25.0131 142.465 25.1939C143.176 25.358 143.822 25.7358 144.32 26.2785C144.587 26.5775 144.793 26.9275 144.926 27.3081C145.059 27.6887 145.117 28.0927 145.097 28.4965C145.11 29.0561 144.982 29.6098 144.724 30.1035C144.465 30.5973 144.086 31.014 143.622 31.3134C142.438 32.0899 141.05 32.4796 139.643 32.4304Z" fill="#1D2130"/>
<path id="Vector_8" d="M161.854 31.622C161.863 31.6794 161.86 31.7382 161.848 31.7948C161.834 31.8513 161.809 31.9044 161.775 31.9513C161.741 31.998 161.698 32.0373 161.649 32.067C161.6 32.0966 161.546 32.1159 161.49 32.1238C160.911 32.3168 160.307 32.4204 159.699 32.4314C159.096 32.4951 158.487 32.399 157.932 32.1522C157.376 31.9055 156.893 31.5166 156.527 31.023C155.408 32.0061 153.96 32.5106 152.486 32.4314C151.8 32.4637 151.117 32.3492 150.477 32.0955C149.839 31.8417 149.259 31.4544 148.775 30.9582C148.296 30.4382 147.923 29.8248 147.68 29.1544C147.438 28.4839 147.331 27.7704 147.365 27.0566V20.7266C147.365 20.419 147.507 20.2571 147.808 20.2571H150.472C150.772 20.2571 150.916 20.419 150.916 20.7266V26.5709C150.887 27.299 151.13 28.0111 151.598 28.5622C151.83 28.8146 152.114 29.0132 152.428 29.1444C152.743 29.2757 153.081 29.3366 153.42 29.3231C153.768 29.3386 154.115 29.2837 154.441 29.1615C154.768 29.0391 155.068 28.852 155.323 28.6108C155.564 28.3566 155.752 28.0544 155.876 27.723C155.997 27.3917 156.053 27.0381 156.036 26.6843V20.7266C156.036 20.419 156.178 20.2571 156.48 20.2571H159.175C159.476 20.2571 159.618 20.419 159.618 20.7266V28.3518C159.618 28.9831 159.888 29.2908 160.412 29.2908C160.657 29.3004 160.903 29.2732 161.141 29.2097C161.201 29.1926 161.264 29.1896 161.325 29.2008C161.387 29.212 161.445 29.2372 161.495 29.2746C161.545 29.312 161.586 29.3606 161.615 29.4167C161.645 29.4727 161.662 29.5348 161.664 29.5984L161.854 31.622Z" fill="#1D2130"/>
<path id="Vector_9" d="M187.044 31.6224C187.058 31.6803 187.059 31.7408 187.048 31.7994C187.037 31.858 187.013 31.9132 186.978 31.9612C186.942 32.0092 186.898 32.0487 186.847 32.0768C186.795 32.1051 186.738 32.1212 186.68 32.1243C186.091 32.3199 185.475 32.4236 184.856 32.4318C183.914 32.4815 182.982 32.208 182.209 31.6547C181.875 31.4177 181.603 31.1002 181.417 30.7302C181.233 30.3603 181.14 29.9495 181.147 29.534V25.7295C181.18 25.0035 180.943 24.2918 180.48 23.7382C180.258 23.4852 179.984 23.2857 179.677 23.1541C179.37 23.0225 179.039 22.9622 178.706 22.9773C178.406 22.9657 178.107 23.0239 177.833 23.1473C177.558 23.2706 177.314 23.4562 177.121 23.6897C176.701 24.2322 176.488 24.9101 176.518 25.6V31.5738C176.518 31.8815 176.375 32.0433 176.074 32.0433H173.394C173.333 32.0511 173.27 32.0444 173.21 32.0236C173.15 32.0029 173.096 31.9684 173.053 31.9233C173.009 31.878 172.975 31.8229 172.955 31.7624C172.933 31.7018 172.927 31.6373 172.934 31.5738V25.7295C172.97 25.0115 172.75 24.3047 172.317 23.7382C172.123 23.5003 171.881 23.3087 171.607 23.1772C171.333 23.0457 171.034 22.9775 170.731 22.9773C170.407 22.964 170.086 23.0206 169.784 23.1433C169.484 23.2661 169.213 23.4523 168.988 23.6897C168.535 24.2149 168.301 24.9008 168.338 25.6V31.5738C168.345 31.6373 168.339 31.7018 168.319 31.7624C168.297 31.8229 168.265 31.878 168.22 31.9233C168.176 31.9684 168.122 32.0029 168.063 32.0236C168.003 32.0444 167.941 32.0511 167.878 32.0433H165.294C164.993 32.0433 164.85 31.8815 164.85 31.5738V23.9487C164.869 23.8189 164.857 23.6864 164.817 23.5617C164.777 23.4372 164.708 23.3239 164.617 23.2311C164.527 23.1384 164.415 23.0686 164.293 23.0273C164.171 22.986 164.042 22.9745 163.915 22.9936H163.392C163.042 22.9936 162.868 22.864 162.868 22.6049V20.6946C162.86 20.5764 162.892 20.4589 162.958 20.3617C163.025 20.2646 163.122 20.1935 163.233 20.1604C163.781 19.9568 164.361 19.8581 164.945 19.8689C165.505 19.8203 166.067 19.9342 166.567 20.1978C167.065 20.4613 167.482 20.8636 167.767 21.3584C168.301 20.8407 168.935 20.4413 169.629 20.1851C170.321 19.9288 171.058 19.8212 171.794 19.8689C172.507 19.8335 173.221 19.9702 173.873 20.2684C174.526 20.5665 175.101 21.0176 175.551 21.5851C176.076 21.0027 176.72 20.5467 177.438 20.25C178.157 19.9532 178.931 19.823 179.704 19.8689C180.396 19.8359 181.087 19.9498 181.734 20.2034C182.381 20.4569 182.968 20.8447 183.461 21.3422C183.943 21.8611 184.316 22.4744 184.559 23.1451C184.801 23.8158 184.908 24.5298 184.873 25.2438V28.3683C184.873 28.9835 185.141 29.2911 185.649 29.2911C185.895 29.3029 186.141 29.2755 186.378 29.2102C186.706 29.2102 186.88 29.3396 186.901 29.5987L187.044 31.6224Z" fill="#1D2130"/>
<path id="Vector_10" d="M1.15338 18.1531C2.32296 13.3525 5.03166 9.08944 8.84819 6.0428C12.6647 2.99615 17.3697 1.34106 22.2139 1.34106C27.0581 1.34106 31.763 2.99615 35.5795 6.0428C39.396 9.08944 42.1048 13.3525 43.2744 18.1531H41.3721C38.1629 18.1048 35.0196 19.0843 32.3834 20.9539C32.2313 21.0664 32.0724 21.1691 31.9079 21.2615H31.686C31.5213 21.1691 31.3624 21.0664 31.2103 20.9539C28.5509 19.1275 25.4188 18.1522 22.2139 18.1522C19.009 18.1522 15.8768 19.1275 13.2174 20.9539C13.0652 21.0664 12.9064 21.1691 12.7418 21.2615H12.5199C12.3552 21.1691 12.1964 21.0664 12.0443 20.9539C9.40817 19.0843 6.26485 18.1048 3.05572 18.1531H1.15338ZM37.9478 28.3038C38.9243 27.5271 40.1347 27.1208 41.3721 27.1544H43.9244V21.9576H41.3721C39.1926 21.9306 37.0631 22.6234 35.3004 23.9327C34.3085 24.6795 33.1085 25.0824 31.8761 25.0824C30.6439 25.0824 29.4439 24.6795 28.4519 23.9327C26.6446 22.6479 24.4952 21.9591 22.2931 21.9591C20.091 21.9591 17.9417 22.6479 16.1343 23.9327C15.1423 24.6795 13.9424 25.0824 12.7101 25.0824C11.4778 25.0824 10.2778 24.6795 9.28589 23.9327C7.5015 22.6066 5.34138 21.9131 3.13498 21.9576H0.503418V27.1544H3.05572C4.29305 27.1208 5.50338 27.5271 6.47993 28.3038C8.284 29.5895 10.4309 30.2788 12.6308 30.2788C14.8307 30.2788 16.9777 29.5895 18.7818 28.3038C19.7596 27.5295 20.969 27.1235 22.206 27.1544C23.4436 27.1181 24.6549 27.5247 25.6301 28.3038C27.4375 29.5886 29.5869 30.2773 31.789 30.2773C33.9911 30.2773 36.1404 29.5886 37.9478 28.3038ZM37.9478 37.5964C38.9243 36.8198 40.1347 36.4135 41.3721 36.447H43.9244V31.2502H41.3721C39.1926 31.2233 37.0631 31.916 35.3004 33.2253C34.3085 33.9722 33.1085 34.375 31.8761 34.375C30.6439 34.375 29.4439 33.9722 28.4519 33.2253C26.6446 31.9404 24.4952 31.2518 22.2931 31.2518C20.091 31.2518 17.9417 31.9404 16.1343 33.2253C15.1423 33.9722 13.9424 34.375 12.7101 34.375C11.4778 34.375 10.2778 33.9722 9.28589 33.2253C7.5015 31.8993 5.34138 31.2057 3.13498 31.2502H0.503418V36.447H3.05572C4.29305 36.4135 5.50338 36.8198 6.47993 37.5964C8.284 38.8821 10.4309 39.5714 12.6308 39.5714C14.8307 39.5714 16.9777 38.8821 18.7818 37.5964C19.7596 36.8221 20.969 36.4162 22.206 36.447C23.4436 36.4108 24.6549 36.8173 25.6301 37.5964C27.4375 38.8812 29.5869 39.57 31.789 39.57C33.9911 39.57 36.1404 38.8812 37.9478 37.5964Z" fill="#1D2130"/>
</g>
<defs>
<clipPath id="clip0_2409_219">
<rect width="187.141" height="40" fill="white" transform="translate(0.0854492 0.565918)"/>
</clipPath>
</defs>
</svg>
