<svg width="166" height="41" viewBox="0 0 166 41" fill="none" xmlns="http://www.w3.org/2000/svg">
<g id="Logo 3">
<path id="Vector" d="M48.5511 12.2494H52.6685V29.3221H48.5511V12.2494ZM54.3017 22.8759C54.3017 18.6534 56.827 16.1341 60.7247 16.1341C64.6225 16.1341 67.1477 18.6534 67.1477 22.8759C67.1477 27.0983 64.6773 29.6317 60.7247 29.6317C56.772 29.6317 54.3017 27.1686 54.3017 22.8759ZM63.0167 22.8759C63.0167 20.5535 62.1246 19.1883 60.7247 19.1883C59.3248 19.1883 58.4465 20.5957 58.4465 22.8759C58.4465 25.156 59.311 26.5353 60.7247 26.5353C62.1383 26.5353 63.0167 25.2404 63.0167 22.89V22.8759ZM68.6986 30.1525H72.6513C72.8393 30.5811 73.1574 30.936 73.558 31.1642C73.9586 31.3924 74.4204 31.4819 74.8746 31.4192C76.4392 31.4192 77.2627 30.5466 77.2627 29.2799V26.9153H77.1803C76.8523 27.6401 76.3199 28.2473 75.6521 28.6587C74.9842 29.0702 74.2115 29.267 73.4335 29.2236C70.4279 29.2236 68.4378 26.8731 68.4378 22.8336C68.4378 18.7942 70.3318 16.2466 73.4885 16.2466C74.2908 16.2144 75.0835 16.4344 75.7606 16.8771C76.4375 17.3199 76.9665 17.9642 77.2763 18.7237V16.3733H81.3938V29.1813C81.3938 32.2637 78.7449 34.1779 74.8335 34.1779C71.1965 34.1779 68.932 32.503 68.6986 30.1666V30.1525ZM77.2763 22.8617C77.2763 20.8069 76.3568 19.512 74.9021 19.512C73.4473 19.512 72.5552 20.7927 72.5552 22.8617C72.5552 24.9307 73.4335 26.099 74.9021 26.099C76.3706 26.099 77.2763 24.959 77.2763 22.8759V22.8617ZM82.9446 22.8617C82.9446 18.6393 85.4699 16.12 89.3676 16.12C93.2654 16.12 95.8044 18.6393 95.8044 22.8617C95.8044 27.0842 93.334 29.6176 89.3676 29.6176C85.4013 29.6176 82.9446 27.1686 82.9446 22.8759V22.8617ZM91.6596 22.8617C91.6596 20.5394 90.7676 19.1742 89.3676 19.1742C87.9678 19.1742 87.158 20.5957 87.158 22.89C87.158 25.1841 88.0226 26.5494 89.4226 26.5494C90.8224 26.5494 91.6596 25.2404 91.6596 22.89V22.8617ZM97.3689 13.305C97.3582 12.8787 97.471 12.4587 97.6933 12.0983C97.9155 11.7379 98.2372 11.4531 98.6174 11.2804C98.9975 11.1076 99.4192 11.0545 99.8289 11.1277C100.238 11.201 100.618 11.3973 100.918 11.6919C101.219 11.9864 101.428 12.366 101.518 12.7823C101.608 13.1985 101.576 13.633 101.425 14.0304C101.274 14.4277 101.012 14.7703 100.671 15.0145C100.33 15.2587 99.9258 15.3936 99.5099 15.4022C99.2344 15.4215 98.9578 15.3823 98.6977 15.2869C98.4376 15.1915 98.1996 15.0419 97.9985 14.8476C97.7974 14.6533 97.6377 14.4185 97.5294 14.1579C97.4211 13.8972 97.3664 13.6164 97.3689 13.3332V13.305ZM97.3689 16.4014H101.486V29.3221H97.3689V16.4014ZM116.433 22.8617C116.433 27.0842 114.607 29.491 111.478 29.491C110.676 29.5439 109.876 29.3426 109.19 28.9147C108.502 28.4869 107.959 27.8527 107.635 27.0983H107.552V33.4601H103.435V16.3733H107.552V18.6815H107.635C107.944 17.9146 108.476 17.2641 109.159 16.8183C109.842 16.3726 110.642 16.1533 111.45 16.1903C114.607 16.2466 116.487 18.6675 116.487 22.89L116.433 22.8617ZM112.315 22.8617C112.315 20.8069 111.395 19.498 109.954 19.498C108.513 19.498 107.594 20.821 107.58 22.8617C107.566 24.9026 108.513 26.2116 109.954 26.2116C111.395 26.2116 112.315 24.9307 112.315 22.89V22.8617ZM123.501 16.1059C126.917 16.1059 128.99 17.7667 129.086 20.4269H125.339C125.339 19.512 124.598 18.935 123.46 18.935C122.32 18.935 121.812 19.3853 121.812 20.0469C121.812 20.7083 122.265 20.9194 123.185 21.1165L125.819 21.6654C128.332 22.2143 129.401 23.2559 129.401 25.2123C129.401 27.8865 127.027 29.6036 123.528 29.6036C120.028 29.6036 117.736 27.8865 117.558 25.2545H121.524C121.648 26.2116 122.389 26.7745 123.597 26.7745C124.804 26.7745 125.353 26.3664 125.353 25.6909C125.353 25.0152 124.969 24.8745 123.981 24.6633L121.607 24.1426C119.15 23.6219 117.859 22.2847 117.859 20.3143C117.887 17.7807 120.097 16.1341 123.501 16.1341V16.1059ZM143.14 29.294H139.173V26.8872H139.091C138.874 27.6952 138.392 28.4025 137.728 28.8915C137.064 29.3805 136.257 29.6219 135.441 29.5754C134.815 29.612 134.189 29.5103 133.605 29.2774C133.021 29.0444 132.493 28.6857 132.056 28.2254C131.619 27.7651 131.283 27.2139 131.071 26.6091C130.859 26.0043 130.777 25.36 130.829 24.7196V16.3733H134.947V23.7485C134.947 25.2826 135.715 26.099 136.992 26.099C137.291 26.0996 137.587 26.0346 137.859 25.9083C138.133 25.7821 138.376 25.5975 138.573 25.3669C138.771 25.1363 138.918 24.8651 139.004 24.5714C139.092 24.2777 139.117 23.9683 139.078 23.6641V16.3733H143.195L143.14 29.294ZM145.13 16.3733H149.11V18.8645H149.193C149.411 18.0672 149.881 17.3666 150.529 16.8725C151.177 16.3784 151.967 16.1187 152.775 16.1341C153.597 16.0666 154.412 16.3187 155.061 16.8403C155.709 17.3619 156.142 18.1147 156.274 18.949H156.357C156.605 18.1059 157.121 17.3716 157.822 16.862C158.523 16.3523 159.369 16.0962 160.227 16.1341C160.787 16.1147 161.345 16.2165 161.864 16.4326C162.383 16.6487 162.851 16.9745 163.24 17.3886C163.628 17.8029 163.927 18.2962 164.118 18.8365C164.308 19.377 164.385 19.9523 164.344 20.5254V29.3221H160.227V21.6513C160.227 20.2439 159.609 19.5964 158.457 19.5964C158.2 19.5942 157.944 19.6485 157.71 19.7557C157.475 19.8631 157.265 20.0206 157.095 20.2181C156.924 20.4155 156.798 20.6482 156.722 20.9003C156.646 21.1523 156.625 21.4181 156.658 21.6795V29.3221H152.748V21.5951C152.748 20.3002 152.13 19.5964 151.004 19.5964C150.745 19.5965 150.487 19.6532 150.25 19.7625C150.013 19.872 149.801 20.0317 149.628 20.2312C149.456 20.4307 149.327 20.6654 149.249 20.92C149.172 21.1744 149.148 21.443 149.178 21.7076V29.3221H145.061L145.13 16.3733Z" fill="#1D2130"/>
<path id="Vector_2" d="M37.037 13.0237C36.3385 11.386 35.4141 9.85966 34.292 8.4917C32.6334 6.40911 30.5636 4.71035 28.2186 3.50726C25.8736 2.30418 23.3068 1.62401 20.6871 1.51154C18.0673 1.39907 15.454 1.85684 13.0192 2.85473C10.5844 3.85263 8.3833 5.36801 6.56073 7.30115C4.73814 9.23429 3.33544 11.5413 2.44493 14.0705C1.55442 16.5996 1.19629 19.2935 1.39411 21.9748C1.59194 24.6561 2.34124 27.2641 3.59269 29.6269C4.84413 31.9899 6.56936 34.0543 8.65481 35.6842C9.99296 36.7508 11.4716 37.6181 13.0467 38.2598C15.2549 39.1879 17.6184 39.6659 20.0049 39.6673C24.9312 39.6562 29.6521 37.6424 33.133 34.0674C36.6138 30.4925 38.5705 25.6481 38.5741 20.5959C38.5777 17.9901 38.0543 15.4117 37.037 13.0237ZM19.9912 5.38116C22.1344 5.38093 24.2516 5.86131 26.1947 6.78864C25.7209 6.9986 25.2227 7.14523 24.7124 7.22496C23.0334 7.47422 21.4779 8.27364 20.2782 9.50391C19.0786 10.7342 18.2991 12.3293 18.056 14.0513C17.9494 15.0169 17.5211 15.9153 16.8435 16.5948C16.1659 17.2743 15.2806 17.6933 14.3367 17.7811C12.6577 18.0303 11.1022 18.8297 9.9026 20.0599C8.70296 21.2903 7.92343 22.8854 7.68038 24.6073C7.5981 25.5255 7.21608 26.3884 6.59615 27.0563C5.52654 24.7386 5.04605 22.1811 5.19938 19.6216C5.35271 17.0623 6.13487 14.5843 7.4731 12.4182C8.81132 10.2522 10.6621 8.4685 12.8532 7.2332C15.0444 5.9979 17.5045 5.3511 20.0049 5.35302L19.9912 5.38116ZM8.6411 30.4484C8.80578 30.2935 8.97048 30.1527 9.13518 29.9838C10.3562 28.7698 11.1399 27.1673 11.3585 25.4377C11.4472 24.4655 11.8705 23.5574 12.5526 22.8761C13.2089 22.1754 14.0924 21.7449 15.0367 21.6657C16.7158 21.4164 18.2711 20.6169 19.4708 19.3867C20.6704 18.1565 21.45 16.5613 21.693 14.8394C21.7524 13.8225 22.178 12.8645 22.887 12.1512C23.5596 11.4641 24.4516 11.0492 25.3987 10.9829C26.9412 10.7653 28.3798 10.062 29.516 8.97023C30.8097 10.071 31.9059 11.3952 32.755 12.8831C32.7028 12.9553 32.6429 13.0214 32.5765 13.0801C31.9214 13.7869 31.0391 14.2268 30.0924 14.3186C28.4116 14.5635 26.8539 15.3616 25.6534 16.5926C24.453 17.8237 23.6748 19.4213 23.436 21.1449C23.3393 22.1138 22.9189 23.0187 22.2461 23.7062C21.5733 24.3936 20.6893 24.8214 19.7442 24.9169C18.0602 25.1643 16.499 25.9622 15.2924 27.1919C14.0858 28.4217 13.2982 30.0178 13.0467 31.7432C12.9728 32.4311 12.7424 33.0916 12.3742 33.6715C10.966 32.8141 9.70486 31.7252 8.6411 30.4484ZM19.9912 35.8812C18.5985 35.8827 17.2126 35.6837 15.8739 35.2901C16.3318 34.4146 16.6295 33.4605 16.7522 32.4751C16.8485 31.5083 17.2668 30.6052 17.9369 29.9179C18.6069 29.2308 19.4876 28.8017 20.4304 28.7031C22.1119 28.4566 23.6705 27.6584 24.8728 26.4279C26.0752 25.1974 26.8567 23.6007 27.1005 21.8768C27.1966 20.9101 27.6151 20.0068 28.2852 19.3197C28.9552 18.6325 29.8359 18.2034 30.7787 18.1047C32.0441 17.9359 33.2501 17.4528 34.292 16.6973C34.8707 18.9463 34.9391 21.3014 34.4925 23.5817C34.0457 25.8622 33.0955 28.0073 31.7149 29.8526C30.3342 31.6979 28.5596 33.1945 26.5274 34.2273C24.4952 35.2601 22.2593 35.8018 19.9912 35.8108V35.8812Z" fill="#1D2130"/>
</g>
</svg>
