<svg width="197" height="41" viewBox="0 0 197 41" fill="none" xmlns="http://www.w3.org/2000/svg">
<g id="Logo 1" clip-path="url(#clip0_2409_189)">
<path id="Vector" d="M30.094 18.1695C29.5463 18.7377 29.1267 19.4235 28.8654 20.1779C28.604 20.9324 28.5074 21.737 28.582 22.5345L28.556 22.5077C28.6329 23.4463 28.5101 24.3909 28.1964 25.2756C27.8826 26.1603 27.3854 26.9637 26.7393 27.6298C26.0933 28.2959 25.314 28.8086 24.4559 29.1322C23.5979 29.4557 22.6816 29.5822 21.7712 29.503L21.7972 29.5298C20.7083 29.4253 19.6144 29.6696 18.6651 30.2295C17.7157 30.7893 16.9569 31.6376 16.4922 32.6583C16.0273 33.6791 15.8793 34.8229 16.0681 35.9336C16.2569 37.0443 16.7734 38.0679 17.5471 38.865C18.3209 39.6619 19.3142 40.1936 20.3917 40.3872C21.4691 40.5809 22.5783 40.4271 23.568 39.9471C24.5576 39.467 25.3795 38.6838 25.9217 37.7045C26.4638 36.7251 26.6999 35.5972 26.5975 34.4745L26.625 34.5013C26.5481 33.5626 26.6709 32.618 26.9847 31.7333C27.2984 30.8486 27.7958 30.0452 28.4418 29.3792C29.0879 28.7131 29.867 28.2004 30.7251 27.8769C31.5832 27.5533 32.4994 27.4267 33.4098 27.506L33.3823 27.4792C34.2719 27.5617 35.1673 27.4113 35.9855 27.0419C36.8037 26.6726 37.5183 26.0964 38.0629 25.3665C38.6075 24.6367 38.9647 23.777 39.1013 22.8669C39.238 21.9569 39.1494 21.0259 38.8441 20.1605C38.539 19.2951 38.0267 18.5231 37.355 17.9162C36.6832 17.3092 35.8738 16.8869 35.0017 16.6883C34.1295 16.4897 33.2228 16.5213 32.3656 16.7803C31.5085 17.0392 30.7286 17.517 30.0983 18.1695H30.094Z" fill="#1D2130"/>
<path id="Vector_2" d="M19.4313 26.0162L19.4038 25.9894C20.1776 26.0697 20.959 25.9718 21.6916 25.7027C22.4242 25.4336 23.0896 25 23.6397 24.4331C24.1899 23.8664 24.611 23.1807 24.8725 22.4256C25.1341 21.6706 25.2297 20.8649 25.1523 20.067L25.1798 20.0939C25.1029 19.1553 25.2257 18.2106 25.5394 17.326C25.8532 16.4413 26.3504 15.6379 26.9965 14.9717C27.6425 14.3056 28.4218 13.7929 29.2799 13.4694C30.1379 13.1459 31.0542 13.0193 31.9646 13.0986L31.9371 13.0717C33.0261 13.1771 34.1203 12.9336 35.0702 12.3744C36.0202 11.8152 36.7796 10.9674 37.2451 9.94678C37.7105 8.92615 37.8593 7.78232 37.6711 6.67131C37.4829 5.5603 36.9667 4.53622 36.1933 3.73871C35.4197 2.94122 34.4266 2.40915 33.349 2.21507C32.2714 2.02099 31.1619 2.17436 30.1721 2.65425C29.1821 3.13415 28.3599 3.91721 27.8175 4.89662C27.275 5.87603 27.0389 7.00411 27.1412 8.12701L27.1152 8.09869C27.1922 9.03739 27.0697 9.98215 26.7559 10.8669C26.4423 11.7518 25.9449 12.5553 25.2988 13.2214C24.6529 13.8876 23.8735 14.4003 23.0153 14.7237C22.1571 15.0471 21.2408 15.1735 20.3304 15.094L20.3563 15.1223C19.5826 15.042 18.8011 15.1399 18.0686 15.409C17.336 15.6781 16.6705 16.1117 16.1204 16.6786C15.5704 17.2453 15.1492 17.931 14.8876 18.6861C14.6261 19.4413 14.5305 20.2468 14.6079 21.0447L14.5819 21.0179C14.6585 21.9564 14.5355 22.9009 14.2216 23.7855C13.9077 24.6701 13.4105 25.4734 12.7645 26.1394C12.1185 26.8055 11.3394 27.3182 10.4815 27.6417C9.62351 27.9654 8.70742 28.0922 7.79708 28.0131L7.82309 28.04C6.73399 27.9346 5.63986 28.1781 4.68992 28.7373C3.73998 29.2966 2.98049 30.1443 2.51504 31.1649C2.04959 32.1856 1.90083 33.3294 2.08907 34.4404C2.2773 35.5514 2.79337 36.5755 3.56687 37.373C4.34036 38.1706 5.33364 38.7026 6.41121 38.8967C7.48878 39.0907 8.59819 38.9374 9.58811 38.4575C10.578 37.9776 11.4003 37.1946 11.9426 36.2151C12.4851 35.2357 12.7212 34.1076 12.619 32.9847L12.6465 33.0115C12.5696 32.0729 12.6924 31.1282 13.0062 30.2436C13.3199 29.3589 13.8173 28.5555 14.4633 27.8894C15.1094 27.2233 15.8885 26.7106 16.7466 26.387C17.6046 26.0635 18.5209 25.937 19.4313 26.0162Z" fill="#1D2130"/>
<path id="Vector_3" d="M9.7433 23.0254C10.2912 22.4573 10.7106 21.7715 10.9717 21.0169C11.2328 20.2623 11.3291 19.4578 11.2538 18.6603L11.2812 18.6872C11.2043 17.7482 11.3271 16.8034 11.641 15.9185C11.955 15.0335 12.4526 14.23 13.0989 13.5638C13.7453 12.8976 14.5249 12.3851 15.3833 12.0617C16.2418 11.7384 17.1583 11.6122 18.0689 11.6919L18.0414 11.6651C19.1301 11.7702 20.2239 11.5266 21.1733 10.9674C22.1229 10.4082 22.882 9.56061 23.3472 8.54029C23.8123 7.51997 23.9609 6.37656 23.7727 5.26596C23.5845 4.15537 23.0686 3.13168 22.2954 2.33447C21.5221 1.53727 20.5293 1.00536 19.452 0.81129C18.3749 0.617222 17.2659 0.770438 16.2763 1.25004C15.2867 1.72965 14.4647 2.51229 13.9222 3.49125C13.3799 4.47021 13.1436 5.59783 13.2455 6.72034L13.2195 6.69351C13.2964 7.63216 13.1736 8.5768 12.8598 9.46148C12.5461 10.3462 12.0488 11.1496 11.4027 11.8157C10.7567 12.4818 9.97746 12.9945 9.1194 13.318C8.26134 13.6415 7.34514 13.7681 6.43474 13.6888L6.46076 13.7156C5.5712 13.6334 4.6759 13.784 3.85783 14.1535C3.03974 14.5229 2.32534 15.0993 1.78084 15.8293C1.23633 16.5592 0.879334 17.4189 0.742922 18.3289C0.60651 19.2391 0.695098 20.1699 1.00048 21.0352C1.30585 21.9005 1.81815 22.6723 2.48989 23.2792C3.16162 23.8861 3.97105 24.3083 4.84319 24.5068C5.71532 24.7053 6.62192 24.6735 7.47901 24.4146C8.33609 24.1556 9.1159 23.6778 9.7462 23.0254H9.7433Z" fill="#1D2130"/>
<path id="Vector_4" d="M54.5176 8.16113H58.8105V29.7H54.5176V8.16113Z" fill="#1D2130"/>
<path id="Vector_5" d="M61.2423 22.3253C61.2362 20.7775 61.6759 19.2626 62.5056 17.9726C63.3353 16.6826 64.5177 15.6755 65.9029 15.0789C67.2882 14.4822 68.8141 14.3229 70.2873 14.6211C71.7604 14.9192 73.1147 15.6615 74.1783 16.7538C75.242 17.8461 75.9674 19.2393 76.2625 20.757C76.5576 22.2746 76.4092 23.8485 75.836 25.2791C75.2629 26.7098 74.2909 27.9329 73.043 28.7935C71.7951 29.6541 70.3276 30.1135 68.8264 30.1135C67.8298 30.1252 66.8409 29.9321 65.9177 29.5451C64.9944 29.1583 64.1552 28.5856 63.449 27.8604C62.7429 27.1353 62.1841 26.2724 61.8051 25.3219C61.4262 24.3716 61.2348 23.3529 61.2423 22.3253ZM72.1176 22.3253C72.0997 21.6582 71.8914 21.0112 71.5188 20.4653C71.1463 19.9196 70.6259 19.4991 70.0229 19.2565C69.4197 19.0139 68.7607 18.9601 68.128 19.1016C67.4954 19.2431 66.9172 19.5738 66.4659 20.0522C66.0145 20.5306 65.71 21.1357 65.5902 21.7916C65.4705 22.4476 65.5411 23.1253 65.793 23.7402C66.0448 24.355 66.4669 24.8797 67.0065 25.2485C67.546 25.6173 68.1791 25.8142 68.8264 25.8141C69.2697 25.8263 69.7107 25.7437 70.1215 25.5713C70.5324 25.3991 70.9041 25.1409 71.2133 24.8131C71.5226 24.4853 71.7625 24.0951 71.9182 23.6669C72.0739 23.2388 72.1418 22.7819 72.1176 22.3253Z" fill="#1D2130"/>
<path id="Vector_6" d="M93.5202 14.9476V28.9562C93.5202 33.9129 89.7708 36.0082 85.965 36.0082C84.625 36.1116 83.2833 35.8326 82.0869 35.2016C80.8907 34.5707 79.886 33.6124 79.1831 32.4315L82.8457 30.2484C83.1412 30.8638 83.6119 31.3716 84.1949 31.7036C84.7779 32.0358 85.4455 32.1764 86.108 32.1067C86.5316 32.1672 86.9629 32.1287 87.37 31.9941C87.7771 31.8596 88.1497 31.6324 88.4602 31.3293C88.7706 31.0262 89.0111 30.6551 89.1637 30.2433C89.3162 29.8315 89.377 29.3895 89.3415 28.9502V27.6016C88.8388 28.2358 88.199 28.7396 87.4733 29.0727C86.7476 29.4058 85.9562 29.5588 85.1628 29.5195C83.2748 29.4582 81.484 28.6418 80.1696 27.2431C78.8551 25.8445 78.1201 23.9733 78.1201 22.0258C78.1201 20.0782 78.8551 18.2071 80.1696 16.8084C81.484 15.4098 83.2748 14.5933 85.1628 14.5319C85.9562 14.4927 86.7476 14.6458 87.4733 14.9788C88.199 15.3119 88.8388 15.8158 89.3415 16.4499V14.9447L93.5202 14.9476ZM89.343 22.028C89.3719 21.3147 89.193 20.6088 88.8294 20.0012C88.4658 19.3935 87.9342 18.912 87.303 18.6185C86.6718 18.3251 85.9698 18.2331 85.2874 18.3544C84.6051 18.4756 83.9736 18.8047 83.4741 19.2992C82.9747 19.7938 82.6302 20.4311 82.485 21.1291C82.3399 21.8272 82.4006 22.554 82.6595 23.2162C82.9184 23.8784 83.3636 24.4454 83.9377 24.8446C84.5119 25.2436 85.1887 25.4565 85.8812 25.4556C86.3322 25.488 86.7848 25.4227 87.2099 25.2639C87.635 25.1051 88.0231 24.8561 88.3492 24.5333C88.6754 24.2104 88.9322 23.8206 89.1034 23.3891C89.2745 22.9576 89.3562 22.494 89.343 22.028Z" fill="#1D2130"/>
<path id="Vector_7" d="M95.9513 22.3253C95.9454 20.7775 96.385 19.2626 97.2148 17.9726C98.0444 16.6826 99.2268 15.6755 100.612 15.0789C101.997 14.4822 103.523 14.3229 104.996 14.6211C106.47 14.9192 107.824 15.6615 108.887 16.7538C109.951 17.8461 110.677 19.2393 110.972 20.757C111.267 22.2746 111.118 23.8485 110.545 25.2791C109.972 26.7098 109 27.9329 107.752 28.7935C106.504 29.6541 105.037 30.1135 103.535 30.1135C102.539 30.1252 101.55 29.9321 100.627 29.5451C99.7035 29.1583 98.8643 28.5856 98.1581 27.8604C97.452 27.1353 96.8932 26.2724 96.5143 25.3219C96.1353 24.3716 95.944 23.3529 95.9513 22.3253ZM106.827 22.3253C106.809 21.6582 106.601 21.0112 106.228 20.4653C105.855 19.9196 105.335 19.4991 104.732 19.2565C104.129 19.0139 103.47 18.9601 102.837 19.1016C102.204 19.2431 101.626 19.5738 101.175 20.0522C100.724 20.5306 100.419 21.1357 100.299 21.7916C100.18 22.4476 100.25 23.1253 100.502 23.7402C100.754 24.355 101.176 24.8797 101.716 25.2485C102.255 25.6173 102.888 25.8142 103.535 25.8141C103.979 25.8263 104.42 25.7437 104.831 25.5713C105.242 25.3991 105.613 25.1409 105.922 24.8131C106.232 24.4853 106.472 24.0951 106.627 23.6669C106.783 23.2388 106.851 22.7819 106.827 22.3253Z" fill="#1D2130"/>
<path id="Vector_8" d="M113.122 10.9938C113.122 10.4686 113.273 9.95512 113.556 9.5184C113.839 9.08167 114.241 8.74128 114.712 8.54028C115.183 8.33928 115.701 8.28669 116.2 8.38917C116.7 8.49164 117.159 8.74457 117.519 9.11597C117.879 9.48737 118.125 9.96055 118.224 10.4757C118.323 10.9908 118.273 11.5248 118.077 12.0101C117.882 12.4954 117.552 12.9101 117.129 13.2018C116.705 13.4937 116.207 13.6495 115.697 13.6495C115.017 13.6424 114.366 13.3604 113.884 12.864C113.402 12.3674 113.129 11.696 113.122 10.9938ZM113.556 14.9475H117.85V29.7011H113.55L113.556 14.9475Z" fill="#1D2130"/>
<path id="Vector_9" d="M136.386 22.325C136.435 23.3 136.298 24.2756 135.98 25.1954C135.663 26.1154 135.172 26.9617 134.536 27.6854C133.901 28.4092 133.132 28.9963 132.277 29.4128C131.42 29.8296 130.492 30.0674 129.546 30.1131C128.751 30.1578 127.955 30.0196 127.218 29.7081C126.481 29.3967 125.819 28.9201 125.283 28.3128V35.6018H120.99V14.9481H125.283V16.334C125.821 15.7272 126.481 15.251 127.219 14.9399C127.955 14.6287 128.751 14.4906 129.546 14.5353C130.492 14.5807 131.42 14.8186 132.277 15.2352C133.133 15.6519 133.902 16.2391 134.537 16.9631C135.173 17.6871 135.664 18.5336 135.982 19.4537C136.299 20.3739 136.436 21.3497 136.386 22.325ZM132.093 22.325C132.077 21.6345 131.862 20.9644 131.478 20.3986C131.094 19.833 130.556 19.3966 129.933 19.1444C129.309 18.892 128.626 18.8351 127.972 18.9804C127.317 19.1258 126.718 19.4671 126.25 19.9616C125.783 20.456 125.467 21.0818 125.342 21.7605C125.218 22.4392 125.29 23.1406 125.55 23.7771C125.811 24.4134 126.248 24.9566 126.805 25.3385C127.364 25.7204 128.019 25.924 128.689 25.9239C129.148 25.9451 129.608 25.8657 130.036 25.6911C130.464 25.5164 130.851 25.2505 131.173 24.9106C131.495 24.5708 131.742 24.1648 131.901 23.7192C132.059 23.2736 132.125 22.7985 132.093 22.325Z" fill="#1D2130"/>
<path id="Vector_10" d="M149.631 25.2741C149.631 28.6674 146.771 30.1131 143.681 30.1131C142.433 30.2297 141.179 29.9574 140.082 29.3314C138.985 28.7056 138.095 27.7547 137.528 26.6019L141.247 24.4187C141.398 24.9516 141.721 25.4151 142.163 25.7319C142.605 26.0486 143.138 26.1996 143.676 26.1593C144.705 26.1593 145.22 25.8345 145.22 25.2458C145.22 23.6214 138.18 24.4784 138.18 19.3741C138.18 16.1566 140.814 14.5352 143.79 14.5352C144.909 14.4987 146.016 14.7724 146.998 15.3276C147.979 15.8827 148.798 16.6991 149.369 17.6917L145.706 19.7273C145.546 19.3409 145.278 19.0118 144.937 18.781C144.596 18.5501 144.198 18.4278 143.79 18.4293C143.046 18.4293 142.586 18.7273 142.586 19.255C142.592 20.9374 149.631 19.8153 149.631 25.2741Z" fill="#1D2130"/>
<path id="Vector_11" d="M165.316 14.9482V29.7019H161.022V28.3145C160.528 28.9267 159.899 29.4091 159.188 29.722C158.477 30.0349 157.704 30.1695 156.932 30.1147C154.041 30.1147 151.584 27.9911 151.584 24.0046V14.9482H155.877V23.3564C155.842 23.7078 155.879 24.0629 155.991 24.3973C156.102 24.7317 156.281 25.0372 156.518 25.2925C156.755 25.5478 157.043 25.7468 157.362 25.8757C157.682 26.0046 158.024 26.0602 158.366 26.0388C159.94 26.0388 161.027 25.0955 161.027 23.0002V14.9527L165.316 14.9482Z" fill="#1D2130"/>
<path id="Vector_12" d="M189.931 20.643V29.7009H185.637V21.0261C185.637 19.5507 184.95 18.6074 183.577 18.6074C182.147 18.6074 181.344 19.6401 181.344 21.3808V29.7009H177.053V21.0261C177.053 19.5507 176.366 18.6074 174.992 18.6074C173.561 18.6074 172.76 19.6401 172.76 21.3808V29.7009H168.467V14.9473H172.76V16.3034C173.206 15.7017 173.79 15.2247 174.459 14.9156C175.129 14.6067 175.863 14.4756 176.595 14.5344C177.329 14.4974 178.061 14.6573 178.717 14.9983C179.374 15.3394 179.934 15.8502 180.343 16.4808C180.819 15.821 181.448 15.2964 182.174 14.9561C182.9 14.6157 183.697 14.4707 184.492 14.5344C187.778 14.536 189.931 16.9547 189.931 20.643Z" fill="#1D2130"/>
<path id="Vector_13" d="M193.562 14.8572C195.321 14.8572 196.748 13.3867 196.748 11.5726C196.748 9.75863 195.321 8.28809 193.562 8.28809C191.803 8.28809 190.376 9.75863 190.376 11.5726C190.376 13.3867 191.803 14.8572 193.562 14.8572Z" fill="#1D2130"/>
</g>
<defs>
<clipPath id="clip0_2409_189">
<rect width="196.967" height="40" fill="white" transform="translate(0 0.565918)"/>
</clipPath>
</defs>
</svg>
