<svg width="48" height="49" viewBox="0 0 48 49" fill="none" xmlns="http://www.w3.org/2000/svg">
<g id="Icon 2" clip-path="url(#clip0_2409_145)">
<path id="Vector" d="M1 23.4906H9.43254V47.1017H1V23.4906Z" fill="#6B7CFF"/>
<path id="Vector_2" d="M36.4168 47.1016H12.8057V22.1363L17.936 14.4407L19.3611 4.46165C19.4793 3.65935 19.8812 2.92601 20.4939 2.39471C21.1066 1.86341 21.8895 1.56936 22.7004 1.56592H22.9247C24.2662 1.56726 25.5523 2.10074 26.5009 3.0493C27.4494 3.99785 27.9829 5.28398 27.9842 6.62544V16.7445H41.4763C43.2648 16.7467 44.9794 17.4582 46.244 18.7228C47.5086 19.9875 48.2201 21.702 48.2223 23.4905V35.2961C48.2188 38.426 46.9738 41.4267 44.7606 43.6399C42.5474 45.8531 39.5467 47.0981 36.4168 47.1016Z" fill="#6B7CFF"/>
</g>
<defs>
<clipPath id="clip0_2409_145">
<rect width="48" height="48" fill="white" transform="translate(0 0.565918)"/>
</clipPath>
</defs>
</svg>
