<svg width="20" height="21" viewBox="0 0 20 21" fill="none" xmlns="http://www.w3.org/2000/svg">
<g id="Twitter" clip-path="url(#clip0_2469_86)">
<path id="Vector" d="M6.2918 18.691C13.8371 18.691 17.9652 12.4383 17.9652 7.01759C17.9652 6.84181 17.9613 6.66212 17.9535 6.48634C18.7566 5.90559 19.4496 5.18625 20 4.36212C19.2521 4.69487 18.458 4.91219 17.6449 5.00665C18.5011 4.49346 19.1421 3.68727 19.4492 2.73751C18.6438 3.21484 17.763 3.55155 16.8445 3.73322C16.2257 3.07567 15.4075 2.6403 14.5164 2.49442C13.6253 2.34853 12.711 2.50025 11.9148 2.92612C11.1186 3.35199 10.4848 4.02829 10.1115 4.85047C9.73825 5.67264 9.64619 6.59489 9.84961 7.47462C8.21874 7.39278 6.62328 6.96913 5.16665 6.23112C3.71002 5.49312 2.42474 4.45724 1.39414 3.19064C0.870333 4.09374 0.710047 5.16241 0.945859 6.17945C1.18167 7.19649 1.79589 8.08558 2.66367 8.66603C2.01219 8.64534 1.37498 8.46994 0.804688 8.15431V8.20509C0.804104 9.15283 1.13175 10.0715 1.73192 10.805C2.3321 11.5385 3.16777 12.0415 4.09687 12.2285C3.49338 12.3936 2.85999 12.4177 2.2457 12.2988C2.50788 13.1139 3.01798 13.8268 3.70481 14.338C4.39164 14.8492 5.22093 15.1332 6.07695 15.1504C4.62369 16.292 2.82848 16.9111 0.980469 16.9082C0.652739 16.9077 0.325333 16.8876 0 16.8481C1.87738 18.0525 4.06128 18.6922 6.2918 18.691Z" fill="white"/>
</g>
<defs>
<clipPath id="clip0_2469_86">
<rect width="20" height="20" fill="white" transform="translate(0 0.565918)"/>
</clipPath>
</defs>
</svg>
